<svg width="24" height="24" viewBox="0 0 24 24" fill="none" xmlns="http://www.w3.org/2000/svg">
  <rect width="24" height="24" rx="12" fill="black"/>
  <path
    d="M19.5 8.25H4.5C4.08579 8.25 3.75 8.58579 3.75 9V19.5C3.75 19.9142 4.08579 20.25 4.5 20.25H19.5C19.9142 20.25 20.25 19.9142 20.25 19.5V9C20.25 8.58579 19.9142 8.25 19.5 8.25Z"
    stroke="white"
    strokeWidth="1.5"
    strokeLinecap="round"
    strokeLinejoin="round"
  />
  <path
    d="M8.625 20.25V3.75C8.625 3.55109 8.70402 3.36032 8.84467 3.21967C8.98532 3.07902 9.17609 3 9.375 3H14.625C14.8239 3 15.0147 3.07902 15.1553 3.21967C15.296 3.36032 15.375 3.55109 15.375 3.75V20.25"
    stroke="white"
    strokeWidth="1.5"
    strokeLinecap="round"
    strokeLinejoin="round"
  />
</svg>
