<svg width="24" height="24" viewBox="0 0 128 128" fill="none" xmlns="http://www.w3.org/2000/svg">
  <rect width="128" height="128" rx="64" fill="#AB9FF2"/>
  <path
    d="M103.21 61.98C102.74 61.98 102.28 61.95 101.82 61.9C97.1 61.4 93.53 57.32 93.53 52.33C93.53 47.02 97.87 42.68 103.18 42.68H110.95C116.26 42.68 120.6 47.02 120.6 52.33V52.36C120.6 57.67 116.26 62.01 110.95 62.01H103.21V61.98Z"
    fill="white"
  />
  <path
    d="M24.79 61.98C19.48 61.98 15.14 57.64 15.14 52.33V52.3C15.14 46.99 19.48 42.65 24.79 42.65H32.56C37.87 42.65 42.21 46.99 42.21 52.3C42.21 57.29 38.64 61.37 33.92 61.87C33.46 61.92 33 61.95 32.53 61.95H24.79V61.98Z"
    fill="white"
  />
  <path
    d="M67.86 23.1C67.86 17.79 72.2 13.45 77.51 13.45H77.54C82.85 13.45 87.19 17.79 87.19 23.1V30.87C87.19 36.18 82.85 40.52 77.54 40.52C72.55 40.52 68.47 36.95 67.97 32.23C67.92 31.77 67.89 31.31 67.89 30.84V23.1H67.86Z"
    fill="white"
  />
  <path
    d="M40.81 23.1C40.81 17.79 45.15 13.45 50.46 13.45H58.23C63.54 13.45 67.88 17.79 67.88 23.1V23.13C67.88 28.44 63.54 32.78 58.23 32.78H50.46C49.99 32.78 49.53 32.75 49.07 32.7C44.35 32.2 40.78 28.12 40.78 23.13V23.1H40.81Z"
    fill="white"
  />
  <path
    d="M40.81 52.33C40.81 47.02 45.15 42.68 50.46 42.68H58.23C63.54 42.68 67.88 47.02 67.88 52.33V60.1C67.88 65.41 63.54 69.75 58.23 69.75H58.2C52.89 69.75 48.55 65.41 48.55 60.1V52.33H40.81Z"
    fill="white"
  />
  <path
    d="M40.81 81.56C40.81 76.25 45.15 71.91 50.46 71.91H50.49C55.8 71.91 60.14 76.25 60.14 81.56V89.33C60.14 94.64 55.8 98.98 50.49 98.98H50.46C45.15 98.98 40.81 94.64 40.81 89.33V81.56Z"
    fill="white"
  />
  <path
    d="M67.86 81.56C67.86 76.25 72.2 71.91 77.51 71.91H85.28C90.59 71.91 94.93 76.25 94.93 81.56V81.59C94.93 86.9 90.59 91.24 85.28 91.24H77.51C77.04 91.24 76.58 91.21 76.12 91.16C71.4 90.66 67.83 86.58 67.83 81.59V81.56H67.86Z"
    fill="white"
  />
  <path
    d="M67.86 110.79C67.86 105.48 72.2 101.14 77.51 101.14H77.54C82.85 101.14 87.19 105.48 87.19 110.79V110.82C87.19 116.13 82.85 120.47 77.54 120.47H77.51C72.2 120.47 67.86 116.13 67.86 110.82V110.79Z"
    fill="white"
  />
  <path
    d="M13.4 81.56C13.4 76.25 17.74 71.91 23.05 71.91H30.82C36.13 71.91 40.47 76.25 40.47 81.56V89.33C40.47 94.64 36.13 98.98 30.82 98.98H23.05C22.58 98.98 22.12 98.95 21.66 98.9C16.94 98.4 13.37 94.32 13.37 89.33V81.56H13.4Z"
    fill="white"
  />
  <path
    d="M94.93 52.33C94.93 47.02 99.27 42.68 104.58 42.68H104.61C109.92 42.68 114.26 47.02 114.26 52.33V60.1C114.26 65.41 109.92 69.75 104.61 69.75H104.58C99.27 69.75 94.93 65.41 94.93 60.1V52.33Z"
    fill="white"
  />
</svg>
