<svg width="24" height="24" viewBox="0 0 32 32" fill="none" xmlns="http://www.w3.org/2000/svg">
  <path
    d="M16 0C7.163 0 0 7.163 0 16C0 24.837 7.163 32 16 32C24.837 32 32 24.837 32 16C32 7.163 24.837 0 16 0Z"
    fill="#FC9D0F"
  />
  <path
    d="M16.5 5.5C16.5 5.22386 16.2761 5 16 5C15.7239 5 15.5 5.22386 15.5 5.5V26.5C15.5 26.7761 15.7239 27 16 27C16.2761 27 16.5 26.7761 16.5 26.5V5.5Z"
    fill="white"
  />
  <path
    d="M22 8C22 7.44772 21.5523 7 21 7H11C10.4477 7 10 7.44772 10 8C10 8.55228 10.4477 9 11 9H21C21.5523 9 22 8.55228 22 8Z"
    fill="white"
  />
  <path
    d="M22 16C22 15.4477 21.5523 15 21 15H11C10.4477 15 10 15.4477 10 16C10 16.5523 10.4477 17 11 17H21C21.5523 17 22 16.5523 22 16Z"
    fill="white"
  />
  <path
    d="M22 24C22 23.4477 21.5523 23 21 23H11C10.4477 23 10 23.4477 10 24C10 24.5523 10.4477 25 11 25H21C21.5523 25 22 24.5523 22 24Z"
    fill="white"
  />
</svg>
