<svg width="24" height="24" viewBox="0 0 24 24" fill="none" xmlns="http://www.w3.org/2000/svg">
  <path
    d="M12 24C18.6274 24 24 18.6274 24 12C24 5.37258 18.6274 0 12 0C5.37258 0 0 5.37258 0 12C0 18.6274 5.37258 24 12 24Z"
    fill="#0364FF"
  />
  <path
    d="M19.2 12C19.2 15.9765 15.9765 19.2 12 19.2C8.02355 19.2 4.8 15.9765 4.8 12C4.8 8.02355 8.02355 4.8 12 4.8C15.9765 4.8 19.2 8.02355 19.2 12Z"
    fill="white"
  />
  <path
    d="M14.4 12C14.4 13.3255 13.3255 14.4 12 14.4C10.6745 14.4 9.6 13.3255 9.6 12C9.6 10.6745 10.6745 9.6 12 9.6C13.3255 9.6 14.4 10.6745 14.4 12Z"
    fill="#0364FF"
  />
</svg>
